<?xml version="1.0" encoding="utf-8"?>
<!-- Generator: Adobe Illustrator 21.1.0, SVG Export Plug-In . SVG Version: 6.00 Build 0)  -->
<svg version="1.1" id="Layer_1" xmlns="http://www.w3.org/2000/svg" xmlns:xlink="http://www.w3.org/1999/xlink" x="0px" y="0px"
	 viewBox="0 0 88.6 91.1" style="enable-background:new 0 0 88.6 91.1;" xml:space="preserve">
<g>
	<path d="M69.7,22.9c-3.4,0-6.6-4.8-6.6-4.8c-2.9-5.4-0.9-7.9,0-8.6C57.7,4.2,49.8,0.9,41,0.9c-8.6,0-16.4,3.2-21.8,8.2
		c0.1,0,0.2,0,0.3,0.1c0,0,3.8,2.2,0.3,8.9c0,0-3.2,4.8-6.6,4.8c-0.4,0-0.8-0.1-1.2-0.2c0,0-0.1-0.1-0.4-0.3c-0.2,1.3-0.4,2.7-0.4,4
		c0,14,13.3,25.4,29.7,25.4c16.4,0,29.7-11.4,29.7-25.4c0-1.2-0.1-2.4-0.3-3.6C70.1,22.8,69.9,22.9,69.7,22.9z M25.6,41
		c-0.1,0-0.2-0.1-0.3-0.1l0,0l0,0c-0.5-0.3-0.9-0.8-0.9-1.5c0-1,0.8-1.7,1.7-1.7c0.5,0,0.9,0.2,1.2,0.5c0,0,0.1,0,0.1,0l7.1,5.9
		L25.6,41z M56.3,40.9L56.3,40.9L56.3,40.9C56.1,41,56,41,55.9,41l-8.9,3.1l7.1-5.9c0,0,0.1,0,0.1,0c0.3-0.3,0.7-0.5,1.2-0.5
		c1,0,1.7,0.8,1.7,1.7C57.2,40.1,56.8,40.6,56.3,40.9z"/>
	<path d="M81.4,57.8c0.5-2.3,0.7-4.5,0.7-6.6c0-12.4-7.2-19.8-10.4-22.6c-0.2,1.5-0.4,3-0.9,4.5c3.1,3.1,7.5,9.2,7.5,18.1
		c0,1.7-0.2,3.6-0.5,5.6l-5.5-4.6l1,20.1c9.1-5.5,15.4-15.6,15.4-15.6L81.4,57.8z"/>
	<path d="M24.4,76.3c0.2-1.9,0.6-3.8,1-5.6c-1.7-0.4-3.2-0.5-4.3-0.5C20.9,73.6,22.7,75.4,24.4,76.3z"/>
	<path d="M25.8,79.9L25.8,79.9c0,0,0-0.1,0-0.2C25.8,79.8,25.8,79.8,25.8,79.9z"/>
	<path d="M19.6,73.5c-2.6-1.3-5.5-3-8.1-5.3C7.3,64.3,4,59.1,3.9,51.5c0,0,0-0.1,0-0.1c0-1.3,0.3-10.5,7.6-17.2c0,0,0-0.1,0-0.1
		c-0.2-0.6-0.4-1.3-0.6-1.9c0-0.2-0.1-0.3-0.1-0.5c-0.1-0.5-0.2-1.1-0.3-1.6C0.4,37.9,0,49.6,0,51.3c0,0.1,0,0.2,0,0.2
		c0.2,11.7,7.2,19.1,13.9,23.2c3.2,2,6.3,3.3,8.8,4.2C21.2,77.9,19.9,76.2,19.6,73.5z"/>
	<path d="M57.6,76.6c1.8-0.9,3.5-2.7,3.4-6.2c-1.1,0-2.6,0.2-4.3,0.5C57,72.8,57.4,74.7,57.6,76.6z"/>
	<path d="M32.4,53.7c-0.5-0.1-0.9-0.2-1.4-0.4c-3,2.6-7.5,7.5-9.9,15.4c1.3,0,2.9,0.2,4.8,0.6C27.7,62.6,30.4,57.2,32.4,53.7z"/>
	<path d="M51,53.4c-0.5,0.1-0.9,0.2-1.3,0.4c2,3.5,4.7,8.9,6.5,15.6c1.9-0.4,3.5-0.5,4.8-0.6C58.5,60.9,54,55.9,51,53.4z"/>
	<path d="M64,17.5c0.8,1.1,3.4,4.3,5.7,4.3c0.2,0,0.5,0,0.7-0.1c1.1-0.9,9.2-8.2,6.8-21.8c-4.7,7.1-9.8,9.4-13.3,10.1
		C63.3,10.5,61.3,12.6,64,17.5z"/>
	<path d="M12.5,21.8c0.2,0.1,0.5,0.1,0.7,0.1c2.3,0,4.9-3.1,5.7-4.3c2.7-5.1,0.7-7.1,0.2-7.5C15.5,9.4,10.4,7.1,5.7,0
		C3.3,13.7,11.4,20.9,12.5,21.8z"/>
	<path d="M41,52.9c-1.9,0-3.8-0.2-5.7-0.5c-2.8,4.3-8.1,14.2-9.5,27.2c0.1-1.3,0.3-2.5,0.5-3.7l0,0.1c-0.2,1.3-0.4,2.9-0.5,3.9h0
		c-0.4,3-0.4,8,0,11h4.4c0.6-1,2.6-8,5.9-10h4.2h1.1h4.2c3.3,2,5.3,9,5.9,10h4.8c2-18-5.9-33.4-9.5-39C44.9,52.3,42.9,52.9,41,52.9z
		"/>
</g>
</svg>
